<?xml version="1.0" encoding="UTF-8" standalone="no" ?>
<!DOCTYPE svg PUBLIC "-//W3C//DTD SVG 1.1//EN" "http://www.w3.org/Graphics/SVG/1.1/DTD/svg11.dtd">
<svg xmlns="http://www.w3.org/2000/svg" xmlns:xlink="http://www.w3.org/1999/xlink" version="1.1" width="1280" height="1024" viewBox="0 0 1280 1024" xml:space="preserve">
<desc>Created with Fabric.js 3.6.3</desc>
<defs>
</defs>
<g transform="matrix(1.9692780337941629 0 0 1.9692780337941629 640.0153846153846 512.012312418764)" id="background-logo"  >
<rect style="stroke: none; stroke-width: 1; stroke-dasharray: none; stroke-linecap: butt; stroke-dashoffset: 0; stroke-linejoin: miter; stroke-miterlimit: 4; fill: rgb(255,255,255); fill-rule: nonzero; opacity: 1;"  paint-order="stroke"  x="-325" y="-260" rx="0" ry="0" width="650" height="520" />
</g>
<g transform="matrix(1.9692780337941629 0 0 1.9692780337941629 503.17873422861396 505.9193267966442)" id="text-logo-path"  >
<path style="stroke: rgb(4,4,100); stroke-width: 0; stroke-dasharray: none; stroke-linecap: butt; stroke-dashoffset: 0; stroke-linejoin: miter; stroke-miterlimit: 4; fill: rgb(3,7,101); fill-rule: nonzero; opacity: 1;"  paint-order="stroke"  transform=" translate(-188.38000000000002, 20.485)" d="M 2.78 -20.46 L 2.78 -20.46 Q 2.78 -40.08 23.66 -40.08 L 23.66 -40.08 Q 29.64 -40.08 34.79 -38.41 L 34.79 -38.41 L 34.79 -33.96 Q 29.64 -35.9 24.21 -35.9 L 24.21 -35.9 Q 7.93 -35.9 7.93 -20.46 L 7.93 -20.46 Q 7.93 -3.9 23.96 -3.9 L 23.96 -3.9 Q 26.52 -3.9 29.64 -4.56 L 29.64 -4.56 L 29.64 -18.09 L 34.79 -18.09 L 34.79 -1.56 Q 29.98 0.28 24.41 0.28 L 24.41 0.28 Q 2.78 0.28 2.78 -20.46 Z M 48.15 0 L 43 0 L 43 -39.8 L 48.15 -39.8 L 48.15 0 Z M 62.48 0 L 57.33 0 L 57.33 -29.22 L 62.48 -29.22 L 62.48 0 Z M 62.48 -34.93 L 57.33 -34.93 L 57.33 -39.8 L 62.48 -39.8 L 62.48 -34.93 Z M 76.54 0 L 71.39 0 L 71.39 -30.64 Q 71.39 -41.25 83.41 -41.25 L 83.41 -41.25 Q 86.72 -41.25 89.65 -40.13 L 89.65 -40.13 L 89.65 -35.96 Q 86.89 -37.07 83.38 -37.07 L 83.38 -37.07 Q 76.54 -37.07 76.54 -30.87 L 76.54 -30.87 L 76.54 -29.22 L 85.58 -29.22 L 85.58 -25.05 L 76.54 -25.05 L 76.54 0 Z M 96.6 0 L 91.46 0 L 91.46 -39.8 L 96.6 -39.8 L 96.6 0 Z M 103.84 -14.61 L 103.84 -14.61 Q 103.84 -29.22 117.76 -29.22 L 117.76 -29.22 Q 131.67 -29.22 131.67 -14.61 L 131.67 -14.61 Q 131.67 -0.03 117.76 -0.03 L 117.76 -0.03 Q 103.9 -0.03 103.84 -14.61 Z M 108.99 -14.72 L 108.99 -14.72 Q 108.99 -4.17 117.76 -4.17 L 117.76 -4.17 Q 126.52 -4.17 126.52 -14.72 L 126.52 -14.72 Q 126.52 -25.05 117.76 -25.05 L 117.76 -25.05 Q 108.99 -25.05 108.99 -14.72 Z M 160.06 0 L 137.24 0 L 137.24 -3.9 L 154.91 -25.05 L 137.8 -25.05 L 137.8 -29.22 L 160.62 -29.22 L 160.62 -25.05 L 143.17 -3.9 L 160.06 -3.9 L 160.06 0 Z M 173.28 0 L 168.13 0 L 168.13 -29.22 L 173.28 -29.22 L 173.28 0 Z M 173.28 -34.93 L 168.13 -34.93 L 168.13 -39.8 L 173.28 -39.8 L 173.28 -34.93 Z M 187.34 0 L 182.19 0 L 182.19 -29.22 L 185.67 -29.22 L 186.59 -25.49 Q 191.07 -29.22 196.44 -29.22 L 196.44 -29.22 Q 207.38 -29.22 207.38 -18.34 L 207.38 -18.34 L 207.38 0 L 202.23 0 L 202.23 -18.42 Q 202.23 -24.94 195.74 -24.94 L 195.74 -24.94 Q 191.32 -24.94 187.34 -21.24 L 187.34 -21.24 L 187.34 0 Z M 228.25 -20.46 L 228.25 -20.46 Q 228.25 -40.08 249.12 -40.08 L 249.12 -40.08 Q 255.11 -40.08 260.26 -38.41 L 260.26 -38.41 L 260.26 -33.96 Q 255.11 -35.9 249.68 -35.9 L 249.68 -35.9 Q 233.4 -35.9 233.4 -20.46 L 233.4 -20.46 Q 233.4 -3.9 249.43 -3.9 L 249.43 -3.9 Q 251.99 -3.9 255.11 -4.56 L 255.11 -4.56 L 255.11 -18.09 L 260.26 -18.09 L 260.26 -1.56 Q 255.44 0.28 249.88 0.28 L 249.88 0.28 Q 228.25 0.28 228.25 -20.46 Z M 268.19 -10.88 L 268.19 -10.88 L 268.19 -29.22 L 273.34 -29.22 L 273.34 -10.8 Q 273.34 -4.29 279.8 -4.29 L 279.8 -4.29 Q 284.22 -4.29 288.23 -7.99 L 288.23 -7.99 L 288.23 -29.22 L 293.38 -29.22 L 293.38 0 L 289.84 0 L 288.95 -3.73 Q 283.64 0 278.26 0 L 278.26 0 Q 268.19 0 268.19 -10.88 Z M 307.43 0 L 302.28 0 L 302.28 -29.22 L 307.43 -29.22 L 307.43 0 Z M 307.43 -34.93 L 302.28 -34.93 L 302.28 -39.8 L 307.43 -39.8 L 307.43 -34.93 Z M 314.95 -15.2 L 314.95 -15.2 Q 314.95 -29.22 328.81 -29.22 L 328.81 -29.22 Q 332.59 -29.22 335.96 -27.83 L 335.96 -27.83 L 335.96 -39.8 L 341.11 -39.8 L 341.11 -1.75 Q 335.79 0 328 0 L 328 0 Q 314.95 0 314.95 -15.2 Z M 320.01 -15.39 L 320.01 -15.39 Q 320.01 -4.29 328.84 -4.29 L 328.84 -4.29 Q 332.84 -4.29 335.96 -5.37 L 335.96 -5.37 L 335.96 -23.27 Q 332.84 -24.77 328.84 -24.77 L 328.84 -24.77 Q 320.01 -24.77 320.01 -15.39 Z M 348.07 -14.95 L 348.07 -14.95 Q 348.07 -29.22 361.51 -29.22 L 361.51 -29.22 Q 373.98 -29.22 373.98 -16.89 L 373.98 -16.89 Q 373.98 -15.14 373.73 -13.14 L 373.73 -13.14 L 353.22 -13.14 Q 353.22 -4.17 363.68 -4.17 L 363.68 -4.17 Q 368.66 -4.17 372.53 -5.29 L 372.53 -5.29 L 372.53 -1.11 Q 368.66 0 363.12 0 L 363.12 0 Q 348.07 0 348.07 -14.95 Z M 353.22 -17.42 L 353.22 -17.42 L 369.02 -17.42 Q 368.86 -25.1 361.51 -25.1 L 361.51 -25.1 Q 353.72 -25.1 353.22 -17.42 Z" stroke-linecap="round" />
</g>
<g transform="matrix(1.0411367398262246 0 0 1.0411367398262246 1003.8454709354804 512.012312418764)" id="logo-logo"  >
<g style=""  paint-order="stroke"   >
		<g transform="matrix(0.7598963981791426 0 0 -0.7598963981791425 -15.14982652157812 0)"  >
<path style="stroke: none; stroke-width: 1; stroke-dasharray: none; stroke-linecap: butt; stroke-dashoffset: 0; stroke-linejoin: miter; stroke-miterlimit: 4; fill: rgb(3,7,101); fill-rule: nonzero; opacity: 1;"  paint-order="stroke"  transform=" translate(77.96799999999999, 69.6140467468534)" d="m 0 0 h 15.092 c 1.19 0 2.155 0.965 2.155 2.156 v 1.338 c 0 52.211 -41.359 95.902 -93.562 96.805 c -53.332 0.923 -96.868 -42.046 -96.868 -95.189 v -149.447 c 0 -53.145 43.561 -96.116 96.895 -95.19 c 52.188 0.906 93.535 44.586 93.535 96.782 v 2.612 c 0 1.191 -0.965 2.156 -2.155 2.156 H -21.58 v 37.728 c 0 1.191 -0.966 2.156 -2.156 2.156 h -37.729 v 26.949 c 0 1.19 -0.965 2.156 -2.155 2.156 h -90.16 V 5.11 c 0 42.426 35.021 76.814 77.655 75.778 c 41.387 -1.005 73.969 -35.85 73.969 -77.249 V 2.156 C -2.156 0.965 -1.19 0 0 0" stroke-linecap="round" />
</g>
		<g transform="matrix(0.7598963981791426 0 0 -0.7598963981791425 49.82351922229327 -0.46706784908636223)"  >
<path style="stroke: none; stroke-width: 1; stroke-dasharray: none; stroke-linecap: butt; stroke-dashoffset: 0; stroke-linejoin: miter; stroke-miterlimit: 4; fill: rgb(205,10,58); fill-rule: nonzero; opacity: 1;"  paint-order="stroke"  transform=" translate(9.701500000000003, 9.701500000000003)" d="m 0 0 v 37.729 c 0 1.19 -0.965 2.155 -2.155 2.155 h -15.092 c -1.19 0 -2.156 -0.965 -2.156 -2.155 V 0 h -37.728 c -1.19 0 -2.156 -0.965 -2.156 -2.156 v -15.091 c 0 -1.191 0.966 -2.156 2.156 -2.156 h 37.728 v -37.728 c 0 -1.191 0.966 -2.156 2.156 -2.156 h 15.092 c 1.19 0 2.155 0.965 2.155 2.156 v 37.728 h 37.729 c 1.19 0 2.155 0.965 2.155 2.156 V -2.156 C 39.884 -0.965 38.919 0 37.729 0 Z" stroke-linecap="round" />
</g>
</g>
</g>
</svg>